<svg width="877" height="126" viewBox="0 0 877 126" fill="none" xmlns="http://www.w3.org/2000/svg">
<path fill-rule="evenodd" clip-rule="evenodd" d="M320.944 98.3415C331.4 98.3415 339.769 95.6292 346.342 90.1992C352.752 85.3117 356.957 79.0681 359.247 71.4683C361.458 64.1398 361.014 57.8934 357.627 52.7374C354.247 47.5786 347.511 44.8664 337.056 44.8664C326.597 44.8664 318.231 47.5786 311.736 52.7374C305.245 57.8934 301.037 64.1398 298.832 71.4683C296.542 79.0708 296.986 85.3117 300.448 90.1992C303.753 95.6265 310.489 98.3415 320.944 98.3415ZM324.868 85.3117C321.676 85.3117 319.386 84.2268 318.463 81.5118C317.456 79.0708 317.566 75.8107 318.875 71.4683C320.103 67.3945 321.957 64.1398 324.516 61.4221C326.995 58.981 329.934 57.8934 333.132 57.8934C336.327 57.8934 338.614 58.9783 339.621 61.4221C340.547 64.1398 340.433 67.3945 339.209 71.4683C337.9 75.8134 336.046 79.0708 333.568 81.5118C331.005 84.2241 328.066 85.3117 324.868 85.3117ZM840.618 82.7351C837.711 82.7351 836.004 81.6502 835.209 79.4776C834.121 77.3078 834.066 74.5928 835.131 71.0615C836.196 67.5301 837.966 64.5493 840.279 62.6453C842.389 60.4728 844.954 59.6591 847.653 59.3906C853.753 59.3906 855.72 63.4617 853.636 71.3327C852.574 74.8614 850.883 77.5763 848.776 79.7489C846.091 81.9241 843.52 82.7351 840.618 82.7351ZM822.322 46.0896L801.956 113.685H822.867L829.577 91.4225C831.753 95.7648 835.746 97.9374 840.972 97.9374C847.362 97.9374 853.744 96.036 860.282 91.691C863.532 89.3274 866.35 86.4859 868.625 83.2775C870.981 80.2913 872.867 75.9463 874.629 71.0615C876.756 64.0041 876.602 57.7605 874.089 52.6018C871.579 47.443 866.294 44.728 858.163 44.728C854.968 44.728 851.82 45.5417 848.216 46.9006C844.612 48.2567 841.55 50.7005 838.909 53.6867H838.616L840.906 46.0869L822.322 46.0896ZM805.087 75.9381C807.867 66.7056 807.833 59.1058 804.034 53.4046C800.526 47.7007 793.578 44.7172 783.706 44.7172C775.285 44.7172 767.577 47.1582 760.584 52.0457C753.303 56.9333 748.436 63.4481 745.819 72.1355C743.364 80.2778 744.307 86.7953 748.805 91.135C752.934 95.7513 759.252 97.9211 767.966 97.9211C774.356 97.9211 780.491 96.8362 786.747 94.3924C793.001 91.9514 798.085 87.6063 802.003 81.3627H781.962C780.973 82.7215 779.484 83.8064 777.786 84.6201C776.379 85.4338 774.554 85.705 772.809 85.705C769.905 85.705 767.83 84.8913 766.367 82.99C764.905 81.0914 764.69 78.9189 765.587 75.9327H805.087V75.9381ZM768.613 65.8919C770.331 60.1907 774.426 57.2018 780.897 56.9333C783.428 57.2045 785.508 58.0182 786.469 59.6482C787.722 61.2756 788.227 63.4481 787.49 65.8919H768.613ZM697.755 96.7901L708.634 60.6843H690.622L695.038 46.0245H751.965L747.554 60.6843H729.542L718.666 96.7901H697.755ZM687.885 65.2979C688.933 57.9693 687.374 52.5367 682.839 49.2819C678.219 46.293 672.319 44.6657 665.349 44.6657C656.344 44.6657 648.718 46.8382 641.727 51.7257C634.821 56.342 629.87 63.1281 627.253 71.8128C624.716 80.2289 625.656 86.7438 630.079 91.3601C634.29 95.7024 640.523 98.1462 649.237 98.1462C656.498 98.1462 663.672 96.5161 669.879 93.2587C673.131 91.5553 676.053 89.3529 678.523 86.7438C681.083 84.0315 682.937 80.7741 684.664 76.9715H663.747C662.885 78.9404 661.56 80.7027 659.87 82.1275C658.219 83.7576 655.941 84.5713 653.326 84.5713C650.131 84.5713 648.135 83.4891 647.418 81.0426C646.62 78.8701 646.649 75.8839 647.876 71.8128C648.286 70.4566 649.066 68.8266 649.85 67.1965C650.63 65.5664 651.411 63.939 652.401 62.5829C653.39 61.2241 654.879 60.1392 656.286 59.3228C657.691 58.5091 659.31 57.9666 661.341 57.9666C663.663 57.9666 665.16 58.7803 665.915 60.1364C667.038 61.2214 667.049 63.1254 666.684 65.2952H687.885V65.2979ZM586.344 86.7384C581.695 86.7384 579.783 85.3795 580.601 82.6673C581.092 81.0372 582.081 79.6783 583.489 78.8647C584.896 78.051 586.222 77.5085 588.045 77.2373C589.661 76.6949 591.777 76.4236 593.602 76.1524C595.799 75.6072 597.705 75.0648 599.902 74.5223C599.127 78.051 597.728 80.766 595.543 83.2097C593.062 85.6535 590.12 86.7384 586.344 86.7384ZM616.803 96.5107L617.049 95.697C615.923 94.6121 615.668 93.5272 615.706 92.4396C615.659 91.6259 615.697 90.541 616.106 89.1821L623.222 65.5637C624.124 62.5748 624.94 59.8625 625.178 57.1475C625.614 54.9071 625.176 52.5947 623.944 50.6299C622.775 48.7314 620.569 47.3725 617.119 46.2876C613.672 45.2027 608.895 44.6575 602.508 44.6575C592.633 44.6575 584.589 46.2876 579.124 48.9999C573.576 51.9888 570.236 56.3311 568.599 61.7584H589.22C590.453 59.5886 591.736 58.2297 593.434 57.4133C595.34 56.8736 596.585 56.5996 598.036 56.5996C599.487 56.5996 600.86 56.8736 602.438 57.4133C603.73 57.9585 604.272 59.0434 603.991 60.9447C603.045 63.1145 600.604 64.4761 596.666 65.0185C594.838 65.2898 592.726 65.561 590.61 65.8322C588.204 66.1007 585.802 66.372 583.025 66.9171C580.7 66.9171 578.213 67.4596 575.935 68.2733C573.448 68.8157 570.796 69.9033 568.727 70.9855C566.658 72.0677 564.713 73.7005 562.981 75.6018C561.246 77.5031 559.931 79.9469 559.032 82.9304C557.56 87.8179 558.445 91.6178 561.487 94.0615C564.153 96.7765 568.184 97.8614 573.12 97.8614C577.186 97.8614 580.752 97.5902 583.985 96.5026C587.505 95.4177 590.984 93.5191 594.623 91.0753L594.15 96.5026H616.803V96.5107ZM436.516 96.7901L447.395 60.6843H429.096L433.512 46.0245H490.729L486.313 60.6843H468.016L457.137 96.7901H436.516ZM390.718 82.7351C387.816 82.7351 386.11 81.6502 385.309 79.4776C384.22 77.3078 384.165 74.5928 385.23 71.0615C386.292 67.5328 388.065 64.5493 390.381 62.6453C392.488 60.4728 395.056 59.6591 397.752 59.3906C403.852 59.3906 405.819 63.4617 403.736 71.3327C402.674 74.8614 400.982 77.5763 398.875 79.7489C396.194 81.9241 393.623 82.7351 390.718 82.7351ZM372.427 46.0896L352.061 113.685H372.976L379.682 91.4225C381.858 95.7648 385.851 97.9374 391.081 97.9374C397.471 97.9374 403.852 96.036 410.387 91.691C413.637 89.3274 416.455 86.4859 418.73 83.2775C421.083 80.2913 422.973 75.9463 424.737 71.0615C426.864 64.0041 426.71 57.7605 424.2 52.6018C421.687 47.443 416.403 44.728 408.271 44.728C405.076 44.728 401.928 45.5417 398.324 46.9006C394.72 48.2567 391.658 50.7005 389.014 53.6867H388.724L391.014 46.0869L372.427 46.0896ZM226.063 96.7901H246.687L257.561 60.6843H274.119L263.24 96.7901H284.154L299.447 46.0245H241.356L226.063 96.7901ZM229.16 65.2979C230.207 57.9693 228.646 52.5367 224.11 49.2819C219.493 46.293 213.594 44.6657 206.621 44.6657C197.616 44.6657 189.996 46.8382 183.002 51.7257C176.095 56.342 171.145 63.1281 168.527 71.8128C165.994 80.2289 166.934 86.7438 171.351 91.3601C175.561 95.7024 181.798 98.1462 190.509 98.1462C197.77 98.1462 204.943 96.5161 211.15 93.2587C214.402 91.5545 217.324 89.3523 219.795 86.7438C222.355 84.0315 224.209 80.7741 225.936 76.9715H205.022C204.161 78.941 202.836 80.7035 201.145 82.1275C199.493 83.7576 197.215 84.5713 194.601 84.5713C191.406 84.5713 189.409 83.4891 188.693 81.0426C187.895 78.8701 187.924 75.8839 189.151 71.8128C189.56 70.4566 190.341 68.8266 191.124 67.1965C191.905 65.5664 192.686 63.939 193.675 62.5829C194.665 61.2241 196.153 60.1392 197.561 59.3228C198.968 58.5091 200.585 57.9666 202.619 57.9666C204.94 57.9666 206.438 58.7803 207.192 60.1364C208.315 61.2214 208.324 63.1254 207.961 65.2952H229.16V65.2979Z" fill="#505E86"/>
<path fill-rule="evenodd" clip-rule="evenodd" d="M500.857 30.25L515.137 92.3853L567.186 29.835L525.697 57.0797L500.857 30.25Z" fill="#CC2229"/>
<path fill-rule="evenodd" clip-rule="evenodd" d="M11.026 125.147L70.283 62.3388L201.966 124.621L77.4855 100.088L11.026 125.147ZM103.806 0.0542594C94.0845 0.789284 86.792 8.80404 87.5813 17.8956C88.3706 26.9871 96.9458 33.8003 106.667 33.0626C116.394 32.3275 123.684 24.3128 122.895 15.224C122.108 6.13245 113.533 -0.680765 103.806 0.0542594Z" fill="#505E86"/>
<path fill-rule="evenodd" clip-rule="evenodd" d="M163.843 19.5229L113.278 73.1174L0.91571 19.9732L107.131 40.9037L163.843 19.5229Z" fill="#CC2229"/>
<path fill-rule="evenodd" clip-rule="evenodd" d="M496.559 46.0625L481.092 96.6572H507.865L496.559 46.0625ZM562.282 46.0625L520.938 96.6572H546.817L562.282 46.0625Z" fill="#505E86"/>
</svg>
